<mxfile host="app.diagrams.net" modified="2023-11-12T09:23:12.297Z" agent="Mozilla/5.0 (Windows NT 10.0; Win64; x64; rv:109.0) Gecko/20100101 Firefox/119.0" etag="upybS6Wfv8acrkQ7TYt-" version="22.1.0" type="github">
  <diagram name="Page-1" id="BazWnyEBL50iyyZLBPZb">
    <mxGraphModel dx="1059" dy="615" grid="1" gridSize="10" guides="1" tooltips="1" connect="1" arrows="1" fold="1" page="1" pageScale="1" pageWidth="827" pageHeight="1169" math="0" shadow="0">
      <root>
        <mxCell id="0" />
        <mxCell id="1" parent="0" />
        <mxCell id="gHs1_yGDTPSEfHALUva1-14" value="" style="group" vertex="1" connectable="0" parent="1">
          <mxGeometry x="40" y="80" width="310" height="550" as="geometry" />
        </mxCell>
        <mxCell id="gHs1_yGDTPSEfHALUva1-1" value="&lt;p style=&quot;line-height: 110%;&quot;&gt;&lt;/p&gt;&lt;br&gt;&lt;p&gt;&lt;/p&gt;" style="html=1;whiteSpace=wrap;fillColor=#CFC208;gradientColor=default;" vertex="1" parent="gHs1_yGDTPSEfHALUva1-14">
          <mxGeometry width="290" height="550" as="geometry" />
        </mxCell>
        <mxCell id="gHs1_yGDTPSEfHALUva1-5" value="&lt;div&gt;«Web-App»&lt;/div&gt;Public website" style="html=1;whiteSpace=wrap;movable=0;resizable=0;rotatable=0;deletable=0;editable=0;locked=1;connectable=0;" vertex="1" parent="gHs1_yGDTPSEfHALUva1-14">
          <mxGeometry x="90" y="80" width="110" height="50" as="geometry" />
        </mxCell>
        <mxCell id="gHs1_yGDTPSEfHALUva1-6" value="&lt;div&gt;«Web-App»&lt;/div&gt;&lt;div&gt;Administration webapp&lt;br&gt;&lt;/div&gt;" style="html=1;whiteSpace=wrap;movable=0;resizable=0;rotatable=0;deletable=0;editable=0;locked=1;connectable=0;" vertex="1" parent="gHs1_yGDTPSEfHALUva1-14">
          <mxGeometry x="90" y="150" width="110" height="50" as="geometry" />
        </mxCell>
        <mxCell id="gHs1_yGDTPSEfHALUva1-7" value="&lt;div&gt;«Web-App»&lt;/div&gt;&lt;div&gt;Members webApp&lt;br&gt;&lt;/div&gt;" style="html=1;whiteSpace=wrap;movable=0;resizable=0;rotatable=0;deletable=0;editable=0;locked=1;connectable=0;" vertex="1" parent="gHs1_yGDTPSEfHALUva1-14">
          <mxGeometry x="90" y="209" width="110" height="50" as="geometry" />
        </mxCell>
        <mxCell id="gHs1_yGDTPSEfHALUva1-8" value="&lt;div&gt;«Web-App»&lt;/div&gt;&lt;div&gt;Agents webapp&lt;br&gt;&lt;/div&gt;" style="html=1;whiteSpace=wrap;movable=0;resizable=0;rotatable=0;deletable=0;editable=0;locked=1;connectable=0;" vertex="1" parent="gHs1_yGDTPSEfHALUva1-14">
          <mxGeometry x="90" y="269" width="110" height="50" as="geometry" />
        </mxCell>
        <mxCell id="gHs1_yGDTPSEfHALUva1-10" value="&lt;div&gt;«Web-App»&lt;/div&gt;&lt;div&gt;Reporting webapp&lt;br&gt;&lt;/div&gt;" style="html=1;whiteSpace=wrap;movable=0;resizable=0;rotatable=0;deletable=0;editable=0;locked=1;connectable=0;" vertex="1" parent="gHs1_yGDTPSEfHALUva1-14">
          <mxGeometry x="90" y="329" width="110" height="50" as="geometry" />
        </mxCell>
        <mxCell id="gHs1_yGDTPSEfHALUva1-12" value="&lt;div&gt;«Mobile-App»&lt;/div&gt;&lt;div&gt;Sales Agents&lt;br&gt;&lt;/div&gt;" style="html=1;whiteSpace=wrap;movable=0;resizable=0;rotatable=0;deletable=0;editable=0;locked=1;connectable=0;" vertex="1" parent="gHs1_yGDTPSEfHALUva1-14">
          <mxGeometry x="90" y="410" width="110" height="50" as="geometry" />
        </mxCell>
        <mxCell id="gHs1_yGDTPSEfHALUva1-13" value="&lt;div&gt;«Web-App»&lt;/div&gt;&lt;div&gt;Customer App&lt;br&gt;&lt;/div&gt;" style="html=1;whiteSpace=wrap;movable=0;resizable=0;rotatable=0;deletable=0;editable=0;locked=1;connectable=0;" vertex="1" parent="gHs1_yGDTPSEfHALUva1-14">
          <mxGeometry x="90" y="470" width="110" height="50" as="geometry" />
        </mxCell>
        <mxCell id="gHs1_yGDTPSEfHALUva1-29" value="&lt;div&gt;&amp;lt;Subsystems&amp;gt;&lt;/div&gt;&lt;div&gt;Front-end&lt;br&gt;&lt;/div&gt;" style="text;html=1;align=center;verticalAlign=middle;resizable=0;points=[];autosize=1;strokeColor=none;fillColor=none;" vertex="1" parent="gHs1_yGDTPSEfHALUva1-14">
          <mxGeometry x="95" width="100" height="40" as="geometry" />
        </mxCell>
        <mxCell id="gHs1_yGDTPSEfHALUva1-27" value="" style="html=1;whiteSpace=wrap;gradientColor=#CFC208;fillColor=#1A1A1A;" vertex="1" parent="1">
          <mxGeometry x="340" y="80" width="520" height="550" as="geometry" />
        </mxCell>
        <mxCell id="gHs1_yGDTPSEfHALUva1-28" value="&lt;div&gt;&lt;font color=&quot;#ffffff&quot;&gt;&amp;lt;Subsystems&amp;gt;&lt;/font&gt;&lt;/div&gt;&lt;div&gt;&lt;font color=&quot;#ffffff&quot;&gt;Back-end&lt;br&gt;&lt;/font&gt;&lt;/div&gt;" style="text;html=1;align=center;verticalAlign=middle;resizable=0;points=[];autosize=1;strokeColor=none;fillColor=none;" vertex="1" parent="1">
          <mxGeometry x="550" y="80" width="100" height="40" as="geometry" />
        </mxCell>
        <mxCell id="gHs1_yGDTPSEfHALUva1-30" value="&lt;font color=&quot;#fffff0&quot;&gt;&amp;lt;&amp;lt;component&amp;gt;&amp;gt;&lt;br&gt;&lt;br&gt;&lt;/font&gt;" style="html=1;whiteSpace=wrap;fillColor=#666600;gradientColor=#1A1A1A;" vertex="1" parent="1">
          <mxGeometry x="400" y="190" width="110" height="50" as="geometry" />
        </mxCell>
        <mxCell id="gHs1_yGDTPSEfHALUva1-31" value="&lt;font color=&quot;#fffff0&quot;&gt;&amp;lt;&amp;lt;component&amp;gt;&amp;gt;&lt;br&gt;&lt;/font&gt;&lt;div&gt;&lt;br&gt;&lt;/div&gt;" style="html=1;whiteSpace=wrap;fillColor=#666600;gradientColor=#1A1A1A;" vertex="1" parent="1">
          <mxGeometry x="530" y="190" width="110" height="50" as="geometry" />
        </mxCell>
        <mxCell id="gHs1_yGDTPSEfHALUva1-32" value="&lt;font color=&quot;#fffff0&quot;&gt;&amp;lt;&amp;lt;component&amp;gt;&amp;gt;&lt;br&gt;&lt;br&gt;&lt;/font&gt;" style="html=1;whiteSpace=wrap;fillColor=#666600;gradientColor=#1A1A1A;" vertex="1" parent="1">
          <mxGeometry x="660" y="190" width="110" height="50" as="geometry" />
        </mxCell>
        <mxCell id="gHs1_yGDTPSEfHALUva1-33" value="&lt;font color=&quot;#fffff0&quot;&gt;&amp;lt;&amp;lt;component&amp;gt;&amp;gt;&lt;br&gt;&lt;br&gt;&lt;/font&gt;" style="html=1;whiteSpace=wrap;fillColor=#666600;gradientColor=#1A1A1A;" vertex="1" parent="1">
          <mxGeometry x="400" y="250" width="110" height="50" as="geometry" />
        </mxCell>
        <mxCell id="gHs1_yGDTPSEfHALUva1-34" value="&lt;font color=&quot;#fffff0&quot;&gt;&amp;lt;&amp;lt;component&amp;gt;&amp;gt;&lt;br&gt;&lt;br&gt;&lt;/font&gt;" style="html=1;whiteSpace=wrap;fillColor=#666600;gradientColor=#1A1A1A;" vertex="1" parent="1">
          <mxGeometry x="530" y="250" width="110" height="50" as="geometry" />
        </mxCell>
        <mxCell id="gHs1_yGDTPSEfHALUva1-35" value="&lt;font color=&quot;#fffff0&quot;&gt;&amp;lt;&amp;lt;component&amp;gt;&amp;gt;&lt;br&gt;&lt;br&gt;&lt;/font&gt;" style="html=1;whiteSpace=wrap;fillColor=#666600;gradientColor=#1A1A1A;" vertex="1" parent="1">
          <mxGeometry x="660" y="250" width="110" height="50" as="geometry" />
        </mxCell>
        <mxCell id="gHs1_yGDTPSEfHALUva1-36" value="&lt;font color=&quot;#fffff0&quot;&gt;&amp;lt;&amp;lt;component&amp;gt;&amp;gt;&lt;br&gt;&lt;br&gt;&lt;/font&gt;" style="html=1;whiteSpace=wrap;fillColor=#666600;gradientColor=#1A1A1A;" vertex="1" parent="1">
          <mxGeometry x="400" y="330" width="110" height="50" as="geometry" />
        </mxCell>
        <mxCell id="gHs1_yGDTPSEfHALUva1-37" value="&lt;font color=&quot;#fffff0&quot;&gt;&amp;lt;&amp;lt;component&amp;gt;&amp;gt;&lt;br&gt;&lt;br&gt;&lt;/font&gt;" style="html=1;whiteSpace=wrap;fillColor=#666600;gradientColor=#1A1A1A;" vertex="1" parent="1">
          <mxGeometry x="530" y="330" width="110" height="50" as="geometry" />
        </mxCell>
        <mxCell id="gHs1_yGDTPSEfHALUva1-38" value="&lt;font color=&quot;#fffff0&quot;&gt;&amp;lt;&amp;lt;component&amp;gt;&amp;gt;&lt;br&gt;&lt;br&gt;&lt;/font&gt;" style="html=1;whiteSpace=wrap;fillColor=#666600;gradientColor=#1A1A1A;" vertex="1" parent="1">
          <mxGeometry x="660" y="330" width="110" height="50" as="geometry" />
        </mxCell>
        <mxCell id="gHs1_yGDTPSEfHALUva1-39" value="&lt;font color=&quot;#fffff0&quot;&gt;&amp;lt;&amp;lt;component&amp;gt;&amp;gt;&lt;br&gt;&lt;br&gt;&lt;/font&gt;" style="html=1;whiteSpace=wrap;fillColor=#666600;gradientColor=#1A1A1A;" vertex="1" parent="1">
          <mxGeometry x="400" y="390" width="110" height="50" as="geometry" />
        </mxCell>
        <mxCell id="gHs1_yGDTPSEfHALUva1-40" value="&lt;font color=&quot;#fffff0&quot;&gt;&amp;lt;&amp;lt;component&amp;gt;&amp;gt;&lt;br&gt;&lt;br&gt;&lt;/font&gt;" style="html=1;whiteSpace=wrap;fillColor=#666600;gradientColor=#1A1A1A;" vertex="1" parent="1">
          <mxGeometry x="530" y="390" width="110" height="50" as="geometry" />
        </mxCell>
        <mxCell id="gHs1_yGDTPSEfHALUva1-54" style="edgeStyle=orthogonalEdgeStyle;rounded=0;orthogonalLoop=1;jettySize=auto;html=1;exitX=0.75;exitY=0;exitDx=0;exitDy=0;" edge="1" parent="1" source="gHs1_yGDTPSEfHALUva1-41" target="gHs1_yGDTPSEfHALUva1-48">
          <mxGeometry relative="1" as="geometry" />
        </mxCell>
        <mxCell id="gHs1_yGDTPSEfHALUva1-41" value="&lt;font color=&quot;#fffff0&quot;&gt;&amp;lt;&amp;lt;component&amp;gt;&amp;gt;&lt;br&gt;&lt;br&gt;&lt;/font&gt;" style="html=1;whiteSpace=wrap;fillColor=#666600;gradientColor=#1A1A1A;" vertex="1" parent="1">
          <mxGeometry x="660" y="390" width="110" height="50" as="geometry" />
        </mxCell>
        <mxCell id="gHs1_yGDTPSEfHALUva1-42" value="&lt;font color=&quot;#fffff0&quot;&gt;&amp;lt;&amp;lt;component&amp;gt;&amp;gt;&lt;br&gt;&lt;br&gt;&lt;/font&gt;" style="html=1;whiteSpace=wrap;fillColor=#666600;gradientColor=#1A1A1A;" vertex="1" parent="1">
          <mxGeometry x="400" y="470" width="110" height="50" as="geometry" />
        </mxCell>
        <mxCell id="gHs1_yGDTPSEfHALUva1-43" value="&lt;font color=&quot;#fffff0&quot;&gt;&amp;lt;&amp;lt;component&amp;gt;&amp;gt;&lt;br&gt;&lt;br&gt;&lt;/font&gt;" style="html=1;whiteSpace=wrap;fillColor=#666600;gradientColor=#1A1A1A;" vertex="1" parent="1">
          <mxGeometry x="530" y="470" width="110" height="50" as="geometry" />
        </mxCell>
        <mxCell id="gHs1_yGDTPSEfHALUva1-44" value="&lt;font color=&quot;#fffff0&quot;&gt;&amp;lt;&amp;lt;component&amp;gt;&amp;gt;&lt;br&gt;&lt;br&gt;&lt;/font&gt;" style="html=1;whiteSpace=wrap;fillColor=#666600;gradientColor=#1A1A1A;" vertex="1" parent="1">
          <mxGeometry x="660" y="470" width="110" height="50" as="geometry" />
        </mxCell>
        <mxCell id="gHs1_yGDTPSEfHALUva1-45" value="&lt;font color=&quot;#fffff0&quot;&gt;&amp;lt;&amp;lt;component&amp;gt;&amp;gt;&lt;br&gt;&lt;br&gt;&lt;/font&gt;" style="html=1;whiteSpace=wrap;fillColor=#666600;gradientColor=#1A1A1A;" vertex="1" parent="1">
          <mxGeometry x="350" y="560" width="110" height="50" as="geometry" />
        </mxCell>
        <mxCell id="gHs1_yGDTPSEfHALUva1-46" value="&lt;font color=&quot;#fffff0&quot;&gt;&amp;lt;&amp;lt;component&amp;gt;&amp;gt;&lt;br&gt;&lt;br&gt;&lt;/font&gt;" style="html=1;whiteSpace=wrap;fillColor=#666600;gradientColor=#1A1A1A;" vertex="1" parent="1">
          <mxGeometry x="480" y="560" width="110" height="50" as="geometry" />
        </mxCell>
        <mxCell id="gHs1_yGDTPSEfHALUva1-47" value="&lt;font color=&quot;#fffff0&quot;&gt;&amp;lt;&amp;lt;component&amp;gt;&amp;gt;&lt;br&gt;&lt;br&gt;&lt;/font&gt;" style="html=1;whiteSpace=wrap;fillColor=#666600;gradientColor=#1A1A1A;" vertex="1" parent="1">
          <mxGeometry x="610" y="560" width="110" height="50" as="geometry" />
        </mxCell>
        <mxCell id="gHs1_yGDTPSEfHALUva1-48" value="&lt;font color=&quot;#fffff0&quot;&gt;&amp;lt;&amp;lt;component&amp;gt;&amp;gt;&lt;br&gt;&lt;br&gt;&lt;/font&gt;" style="html=1;whiteSpace=wrap;fillColor=#666600;gradientColor=#1A1A1A;" vertex="1" parent="1">
          <mxGeometry x="740" y="560" width="110" height="50" as="geometry" />
        </mxCell>
        <mxCell id="gHs1_yGDTPSEfHALUva1-55" value="" style="rounded=0;whiteSpace=wrap;html=1;" vertex="1" parent="1">
          <mxGeometry x="345" y="680" width="480" height="220" as="geometry" />
        </mxCell>
      </root>
    </mxGraphModel>
  </diagram>
</mxfile>
